<?xml version="1.0" encoding="UTF-8" standalone="no"?><!DOCTYPE svg PUBLIC "-//W3C//DTD SVG 1.1//EN" "http://www.w3.org/Graphics/SVG/1.1/DTD/svg11.dtd"><svg width="100%" height="100%" viewBox="0 0 6596 6667" version="1.1" xmlns="http://www.w3.org/2000/svg" xmlns:xlink="http://www.w3.org/1999/xlink" xml:space="preserve" xmlns:serif="http://www.serif.com/" style="fill-rule:evenodd;clip-rule:evenodd;stroke-linejoin:round;stroke-miterlimit:2;"><path d="M370.395,3695.04c148.382,7.791 405.757,6.852 465.897,36.541c52.699,26.016 -130.128,88.442 -105.055,141.596c38.063,80.695 258.831,359.319 333.436,342.571c74.604,-16.748 47.198,-362.364 114.19,-443.058c61.891,-74.551 203.501,6.733 287.76,-41.109c89.829,-51.005 137.789,-258.831 251.218,-264.922c113.43,-6.09 322.779,143.119 429.356,228.381c91.785,73.428 204.782,205.543 210.111,283.192c5.328,77.65 -169.002,108.1 -178.137,182.705c-9.136,74.604 114.19,183.466 123.325,264.922c8.696,77.535 -93.713,149.972 -68.514,223.813c32.735,95.92 204.02,299.178 264.922,351.706c26.989,23.279 66.189,-46.234 100.487,-36.541c35.019,9.897 74.605,89.83 109.623,95.92c35.018,6.09 62.555,-50.728 100.487,-59.379c43.393,-9.896 109.247,-16.651 159.867,0c57.856,19.032 124.848,104.294 187.272,114.19c62.424,9.897 122.565,-59.379 187.272,-54.811c64.708,4.568 162.151,24.361 200.975,82.217c38.825,57.857 9.897,216.201 31.974,264.922c14.329,31.624 70.066,10.674 100.487,27.405c30.451,16.748 73.082,49.483 82.217,73.082c8.88,22.939 -39.184,46.921 -27.405,68.514c27.405,50.244 97.442,248.936 191.84,232.949c94.397,-15.987 291.566,-266.444 374.544,-328.868c35.031,-26.354 102.771,-28.929 123.326,-45.677c14.163,-11.541 -17.598,-49.9 -0,-54.811c32.734,-9.135 148.447,24.361 196.407,0c47.96,-24.361 53.289,-121.803 91.352,-146.164c38.064,-24.36 103.661,31.192 137.029,0c70.037,-65.469 219.245,-281.669 283.192,-392.815c48.523,-84.337 65.722,-183.18 100.487,-274.056c43.393,-113.43 96.682,-300.702 159.867,-406.518c54.102,-90.605 152.254,-180.421 219.245,-228.381c52.07,-37.277 143.119,-19.793 182.705,-59.379c39.586,-39.586 29.69,-149.209 54.811,-178.137c20.989,-24.168 72.321,8.374 95.92,4.568c17.529,-2.828 54.812,-12.942 45.676,-27.406c-9.135,-14.464 -103.104,-20.56 -100.487,-59.379c4.568,-67.753 79.933,-295.372 127.893,-347.139c37.151,-40.098 127.132,46.438 159.867,36.541c32.734,-9.896 25.122,-69.275 36.541,-95.92c9.387,-21.904 15.986,-53.289 31.973,-63.946c15.987,-10.658 59.268,20.795 63.947,-0c13.702,-60.902 -3.046,-302.985 18.27,-365.409c11.849,-34.701 88.307,-0.762 109.623,-9.136c13.957,-5.483 18.27,-27.405 18.27,-41.108c0,-13.703 -3.835,-37.049 -18.27,-41.109c-24.361,-6.851 -106.578,9.897 -127.893,0c-17.953,-8.335 -9.094,-41.798 -0,-59.379c11.419,-22.077 63.185,-54.05 68.514,-73.082c4.943,-17.654 -19.203,-35.148 -36.541,-41.108c-24.361,-8.374 -74.605,-0 -109.623,-9.135c-35.018,-9.136 -73.082,-21.316 -100.487,-45.677c-27.406,-24.36 -29.383,-80.951 -63.947,-100.487c-35.018,-19.793 -116.474,-2.284 -146.164,-18.271c-24.645,-13.27 -14.487,-55.791 -31.973,-77.649c-24.361,-30.451 -79.933,-102.771 -114.19,-105.055c-34.258,-2.284 -76.127,57.856 -91.353,91.352c-15.12,33.266 27.441,85.494 0,109.623c-44.153,38.825 -184.988,90.591 -264.921,123.326c-69.954,28.647 -143.094,97.369 -214.678,73.081c-127.894,-43.392 -436.969,-228.38 -552.682,-333.436c-81.178,-73.701 -123.325,-221.529 -141.596,-296.894c-12.452,-51.365 15.987,-120.281 31.974,-155.299c11.659,-25.539 40.347,-54.05 63.946,-54.812c23.6,-0.761 46.957,47.348 77.65,50.244c40.347,3.806 116.142,0.083 164.434,-27.406c49.482,-28.167 118.758,-113.429 132.461,-141.596c8.345,-17.155 -42.561,-9.944 -50.244,-27.405c-8.374,-19.032 -6.09,-64.708 -0,-86.785c5.185,-18.796 21.784,-32.932 36.541,-45.676c16.748,-14.464 61.663,-28.167 63.946,-41.109c2.284,-12.941 -29.985,-40.838 -50.243,-36.541c-25.122,5.329 -66.756,46.027 -100.488,68.514c-34.257,22.839 -67.073,51.043 -105.055,68.515c-38.064,17.509 -97.443,34.257 -123.326,36.541c-13.046,1.151 -19.461,-26.711 -31.973,-22.838c-31.973,9.896 -125.609,76.888 -159.867,82.217c-22.365,3.479 -32.765,-31.653 -45.676,-50.244c-19.031,-27.406 -57.095,-76.127 -68.514,-114.191c-10.937,-36.458 -7.611,-76.895 0,-114.19c7.613,-37.302 28.167,-91.352 45.676,-109.623c13.695,-14.29 42.823,-10.847 59.379,0c22.077,14.464 60.902,86.785 73.082,86.785c12.18,0 -5.329,-72.321 0,-86.785c3.685,-10 21.863,3.371 31.973,0c15.987,-5.329 47.96,-16.748 63.947,-31.973c15.987,-15.225 16.748,-46.437 31.973,-59.379c15.226,-12.942 46.438,-26.644 59.379,-18.27c12.942,8.374 -4.543,74.693 18.271,68.514c36.541,-9.897 159.866,-103.533 200.975,-127.893c14.107,-8.36 34.257,-15.226 45.676,-18.271c7.356,-1.961 15.822,2.954 22.838,0c14.464,-6.09 47.175,-18.612 63.947,-36.541c22.076,-23.599 76.888,-93.636 68.514,-105.055c-8.374,-11.419 -96.681,35.018 -118.758,36.541c-10.189,0.703 -3.954,-30.452 -13.703,-27.406c-12.18,3.807 -42.631,44.154 -59.379,50.244c-13.574,4.936 -39.586,-2.284 -41.108,-13.703c-1.523,-11.419 40.347,-45.676 31.973,-54.811c-8.374,-9.135 -56.735,-10.087 -82.217,-0c-36.541,14.464 -91.597,57.474 -137.029,86.785c-47.198,30.45 -102.771,78.41 -146.163,95.919c-35.411,14.289 -101.249,14.465 -114.191,9.136c-12.941,-5.329 53.289,-47.199 36.541,-41.109c-16.748,6.09 -97.442,61.663 -137.028,77.65c-31.568,12.748 -86.785,28.167 -100.488,18.27c-13.703,-9.896 32.735,-63.947 18.271,-77.649c-14.464,-13.703 -89.069,4.567 -105.055,-4.568c-14.78,-8.446 26.081,-51.858 9.135,-50.244c-31.974,3.045 -147.686,38.064 -200.975,68.514c-47.682,27.247 -63.973,110.386 -118.758,114.191c-54.812,3.806 -159.106,-94.398 -210.111,-91.352c-48.468,2.893 -52.644,87.605 -95.92,109.622c-43.392,22.077 -114.692,-1.411 -164.434,22.838c-60.901,29.69 -153.015,130.939 -200.975,155.299c-25.934,13.173 -60.14,-20.554 -86.784,-9.135c-26.645,11.419 -39.197,66.919 -73.082,77.649c-45.676,14.465 -165.957,-2.283 -200.975,9.136c-19.039,6.208 10.387,54.916 -9.136,59.379c-26.644,6.09 -121.803,-35.019 -150.731,-22.838c-28.928,12.18 -1.499,70.922 -22.838,95.92c-26.644,31.212 -107.339,85.262 -137.028,91.352c-22.373,4.589 -19.617,-62.535 -41.109,-54.812c-48.721,17.51 -204.781,113.43 -251.219,159.867c-28.727,28.727 -9.896,105.816 -27.405,118.758c-17.51,12.942 -49.483,-46.437 -77.65,-41.109c-28.167,5.329 -76.127,47.199 -91.352,73.082c-13.895,23.622 19.663,63.127 -0,82.217c-78.411,76.127 -379.873,308.314 -470.464,374.545c-20.604,15.063 -51.056,9.944 -73.082,22.838c-31.212,18.27 -71.56,72.32 -114.191,86.785c-42.631,14.464 -108.861,-12.181 -141.596,-0c-28.539,10.619 -32.734,60.901 -54.811,73.081c-22.077,12.181 -55.044,-12.606 -77.65,0c-39.586,22.077 -114.19,92.114 -159.866,132.461c-39.546,34.932 -69.133,82.166 -114.19,109.623c-48.722,29.689 -137.029,44.154 -178.137,68.514c-29.696,17.598 -39.952,58.268 -68.515,77.65c-42.631,28.928 -140.073,78.41 -187.272,95.92c-30.113,11.17 -70.037,-0 -95.92,9.135c-23.548,8.311 -62.424,61.663 -82.217,82.217c-12.717,13.206 -28.631,24.569 -36.541,41.108c-8.374,17.51 -16.748,42.631 -13.703,63.947c3.045,21.316 31.974,40.115 31.974,63.947c-0,24.36 -33.496,65.469 -31.974,82.217c1.358,14.933 30.813,7.368 41.109,18.27c12.941,13.703 23.181,43.35 36.541,63.947c18.27,28.167 69.275,85.262 73.082,105.055c3.278,17.047 -36.541,5.329 -50.244,13.703c-13.703,8.374 -35.78,27.405 -31.973,36.541c3.806,9.135 41.108,19.793 54.811,18.27c12.84,-1.427 14.486,-27.406 27.406,-27.406c13.702,0 48.721,10.658 54.811,27.406c6.09,16.748 -22.077,63.185 -18.27,73.082c3.806,9.896 19.301,-14.848 41.108,-13.703Z" style="fill:#fff;"/></svg>